<svg xmlns="http://www.w3.org/2000/svg" viewBox="0 0 261.99 261.99"><defs><style>.cls-1{fill:#e1251b;}</style></defs><title>logo</title><g id="Layer_2" data-name="Layer 2"><g id="Layer_1-2" data-name="Layer 1"><path class="cls-1" d="M131,47.64A83.36,83.36,0,1,1,47.64,131,83.36,83.36,0,0,1,131,47.64m0-5.07a88.43,88.43,0,1,0,62.52,25.9A87.86,87.86,0,0,0,131,42.57Z"/><path class="cls-1" d="M131,25.86A105.14,105.14,0,1,1,25.86,131,105.13,105.13,0,0,1,131,25.86m0-5.06A110.22,110.22,0,0,0,88.1,232.53,110.22,110.22,0,0,0,173.89,29.46,109.46,109.46,0,0,0,131,20.8Z"/><path class="cls-1" d="M131,5.06A125.94,125.94,0,1,1,5.06,131,125.94,125.94,0,0,1,131,5.06M131,0A131,131,0,0,0,80,251.7,131,131,0,0,0,182,10.3,130,130,0,0,0,131,0Z"/><path class="cls-1" d="M121.5,168,97.54,94h16.7L130.74,146H131L147.65,94h16.81L139.87,168Z"/></g></g></svg>